<?xml version="1.0" encoding="UTF-8" standalone="no"?>
<!-- Created with Inkscape (http://www.inkscape.org/) -->

<svg
   xmlns:dc="http://purl.org/dc/elements/1.1/"
   xmlns:cc="http://creativecommons.org/ns#"
   xmlns:rdf="http://www.w3.org/1999/02/22-rdf-syntax-ns#"
   xmlns:svg="http://www.w3.org/2000/svg"
   xmlns="http://www.w3.org/2000/svg"
   xmlns:sodipodi="http://sodipodi.sourceforge.net/DTD/sodipodi-0.dtd"
   xmlns:inkscape="http://www.inkscape.org/namespaces/inkscape"
   width="210mm"
   height="297mm"
   viewBox="0 0 210 297"
   version="1.1"
   id="svg8"
   inkscape:version="0.92.2 2405546, 2018-03-11"
   sodipodi:docname="nf-icon_2.svg"
   inkscape:export-filename="/home/johan/try_III.png"
   inkscape:export-xdpi="72.839996"
   inkscape:export-ydpi="72.839996">
  <defs
     id="defs2" />
  <sodipodi:namedview
     id="base"
     pagecolor="#ffffff"
     bordercolor="#666666"
     borderopacity="1.0"
     inkscape:pageopacity="0.0"
     inkscape:pageshadow="2"
     inkscape:zoom="0.98994949"
     inkscape:cx="538.95685"
     inkscape:cy="374.80606"
     inkscape:document-units="mm"
     inkscape:current-layer="layer1"
     showgrid="false"
     inkscape:window-width="1920"
     inkscape:window-height="1027"
     inkscape:window-x="0"
     inkscape:window-y="0"
     inkscape:window-maximized="1"
     inkscape:snap-global="false">
    <inkscape:grid
       type="xygrid"
       id="grid874" />
  </sodipodi:namedview>
  <metadata
     id="metadata5">
    <rdf:RDF>
      <cc:Work
         rdf:about="">
        <dc:format>image/svg+xml</dc:format>
        <dc:type
           rdf:resource="http://purl.org/dc/dcmitype/StillImage" />
        <dc:title />
      </cc:Work>
    </rdf:RDF>
  </metadata>
  <g
     inkscape:label="Layer 1"
     inkscape:groupmode="layer"
     id="layer1">
    <g
       id="g897">
      <rect
         y="118.73122"
         x="33.141422"
         height="131.4966"
         width="131.4966"
         id="rect893"
         style="opacity:1;fill:#e3dbdb;fill-opacity:1;stroke:#201212;stroke-width:0.2;stroke-miterlimit:4;stroke-dasharray:none;stroke-dashoffset:0;stroke-opacity:1" />
      <path
         inkscape:connector-curvature="0"
         inkscape:export-ydpi="72.839996"
         inkscape:export-xdpi="72.839996"
         inkscape:export-filename="/home/johan/Desktop/try.png"
         id="path826"
         d="m 107.99289,130.93122 c -1.90835,0.0216 -3.76186,0.36718 -5.24722,1.04793 -2.48184,1.13743 -3.039776,2.70721 -0.96222,2.70721 0.71404,0 1.44599,0.26982 1.62677,0.60009 0.20936,0.38246 -1.32368,0.60068 -4.222994,0.60068 -4.666628,0 -6.073018,-0.82473 -2.644798,-1.55087 1.701056,-0.36031 1.820798,-0.502 1.104841,-1.31036 -1.815375,-2.04967 -10.416264,-0.62714 -9.649023,1.59589 0.183184,0.53077 0.375367,1.21324 0.426847,1.51651 0.134048,0.79005 -2.329127,2.1341 -3.89537,2.12608 l -1.329635,-0.007 1.476396,-1.03312 c 1.77278,-1.24073 1.686806,-2.77055 -0.1695,-3.01584 -1.849241,-0.24437 -5.087726,2.31403 -4.841047,3.82445 0.595906,3.64873 0.654588,7.05033 0.131776,7.64061 -0.427648,0.48284 -0.586528,-0.0284 -0.586528,-1.88675 0,-3.92078 -1.680784,-5.49736 -5.86114,-5.49736 -3.846552,0 -5.307687,0.72941 -5.307687,2.64975 0,1.68066 0.783754,2.50836 2.927987,3.09108 2.018414,0.54851 4.66589,2.032 5.174361,2.89973 0.214908,0.36676 0.396259,1.34247 0.402559,2.16814 0.0034,0.44022 0.103573,0.8373 0.294039,1.20255 l 0.365353,-0.30864 c 0.849233,-0.71653 1.977562,-1.51861 3.18947,-2.29313 1.23536,-5.09867 4.350998,-7.74479 10.265005,-8.87633 5.457589,-1.0442 11.291328,0.33833 14.850258,3.14854 1.29201,0.16557 2.57565,0.39966 3.84679,0.70079 l -0.88987,-1.96968 c -1.39601,-3.08954 -1.34886,-3.51959 0.20619,-1.87017 1.23611,1.31114 1.32906,1.32185 3.0117,0.33944 0.95485,-0.5575 3.13336,-1.15686 4.84105,-1.33169 4.58154,-0.46906 3.98125,-2.54275 -1.56631,-5.41027 -1.96992,-1.01826 -4.51446,-1.52592 -6.96805,-1.49815 z m 1.36529,11.74052 0.1788,0.39571 0.41961,-0.24524 c -0.19933,-0.0507 -0.39842,-0.10309 -0.59841,-0.15047 z m 0.59841,0.15047 c 1.19294,0.3035 2.37369,0.66689 3.53881,1.0894 3.46542,-1.94326 8.1671,-1.74344 12.9992,0.70494 3.46822,1.75732 6.71147,5.23177 7.28276,7.80174 0.18934,0.85194 0.21164,2.47148 0.0496,3.59875 -0.28409,1.97659 -0.22448,2.06205 1.66398,2.40746 3.46995,0.6347 6.43001,2.13136 8.20415,4.1479 2.15542,2.44991 2.76222,2.53058 4.47467,0.59713 1.09984,-1.24177 1.30022,-1.90674 1.03146,-3.424 -0.6072,-3.42781 -3.76956,-5.83003 -7.68842,-5.84035 -1.12134,-0.003 -1.23187,0.22011 -1.03766,2.09824 0.25575,2.47352 -0.21167,2.72151 -1.07901,0.57224 -0.85958,-2.13006 -0.77069,-3.88962 0.26252,-5.17865 1.06797,-1.33239 1.77922,-1.41114 1.77922,-0.19726 0,0.6005 0.53207,0.90043 1.59577,0.90043 2.00216,0 2.10138,-1.28446 0.26044,-3.36299 -1.7919,-2.02316 -4.20919,-3.09139 -10.80244,-4.77345 -3.04669,-0.77728 -5.67077,-1.56111 -5.83116,-1.74221 -0.16041,-0.1811 1.18406,-0.32937 2.98793,-0.32937 2.12509,0 3.2799,-0.24435 3.2799,-0.69369 0,-0.38141 -0.93006,-1.69275 -2.06706,-2.91395 -2.07847,-2.23237 -3.95422,-2.99807 -7.34374,-2.99807 -1.57144,0 -1.8077,0.18309 -1.66191,1.28785 0.12324,0.93391 0.94057,1.61793 2.9745,2.48803 1.54266,0.65994 2.72068,1.29504 2.61792,1.41106 -0.10276,0.11602 -1.85454,-0.0256 -3.89278,-0.31456 -4.36475,-0.61879 -9.17831,0.0796 -12.02873,1.74577 z m 3.53881,1.0894 c -0.9834,0.55144 -1.86728,1.27495 -2.6262,2.16932 l -1.4981,1.76531 -1.05575,-2.40983 c -0.57178,-1.3048 -1.54742,-2.47327 -2.80396,-3.46546 -1.9835,-0.25419 -3.98598,-0.34367 -5.990852,-0.27487 0.741582,0.20483 1.463862,0.44999 2.149222,0.74819 4.87459,2.12088 6.16024,4.90195 4.38526,10.39995 0.78898,0.15011 1.5715,0.33288 2.3456,0.55032 1.76205,-3.20877 3.71222,-5.75017 5.60327,-7.00142 0.80981,-0.53583 1.72479,-0.91657 2.70681,-1.15101 -1.05547,-0.49648 -2.12914,-0.93663 -3.2153,-1.3305 z m 3.2153,1.3305 c 2.7842,1.30965 5.4507,2.97429 7.94164,4.9879 2.60356,2.10465 4.91986,4.50652 6.92722,7.15248 0.68082,-5.02104 0.0365,-6.40888 -2.95434,-8.855 -3.63554,-2.97346 -8.24665,-4.161 -11.91452,-3.28538 z m 14.86886,12.14038 c -0.1137,0.83861 -0.26023,1.76711 -0.44338,2.83102 -1.05862,6.14946 -1.06027,6.35301 -0.1049,11.66648 0.53479,2.97431 0.82723,6.22596 0.65009,7.22594 -0.36333,2.05114 -0.004,2.31744 1.03818,0.76773 0.91543,-1.36156 0.91159,-3.13092 -0.0181,-8.14769 -0.68288,-3.68509 -0.68667,-5.94767 -0.0165,-9.76847 0.14146,-0.80653 0.32397,-1.07305 1.31103,-1.02661 -0.74644,-1.22586 -1.55261,-2.40983 -2.41639,-3.5484 z m 2.41639,3.5484 c 3.28695,5.39805 5.41822,11.60316 6.211,18.28581 l 0.12557,1.05801 c 0.25602,-0.9241 0.38877,-0.68206 0.41393,0.70435 l 6.22752,0.0284 2.25516,0.0101 c -0.24745,-2.88153 -1.01662,-5.58497 -2.36523,-8.75134 -3.41312,-8.01366 -5.69072,-10.29461 -11.10681,-11.12444 -0.7853,-0.12032 -1.33918,-0.19104 -1.76114,-0.21089 z m 15.23318,20.08667 c 0.18228,2.12256 0.0778,4.34723 -0.28784,6.92027 2.23287,-3.34089 4.05453,-6.06974 4.28191,-6.42207 l 0.30903,-0.47865 -1.55185,-0.007 -0.28525,0.38328 -0.0641,-0.38446 z m 2.40192,0.0112 0.34933,0.001 1.01545,-1.36249 c 0.74412,-0.99847 1.82654,-1.74577 2.52852,-1.74577 1.43319,0 3.95982,3.00586 5.06946,6.0305 l 0.75654,2.06151 0.73743,-2.94831 c 0.82276,-3.28904 0.33213,-6.33692 -1.4118,-8.76852 -0.83426,-1.16323 -1.12058,-1.24238 -2.17765,-0.60364 -1.29442,0.78216 -4.82761,0.36771 -4.82761,-0.56632 0,-0.29537 0.89724,-0.62082 1.99419,-0.72331 l 1.99472,-0.1866 -0.0114,-3.40386 c -0.0135,-4.04215 -0.98802,-5.59538 -4.10466,-6.54291 -1.91106,-0.58101 -2.18934,-0.50742 -3.32745,0.8791 -0.68305,0.83214 -1.86014,1.68845 -2.61637,1.90275 -0.75623,0.21429 -1.37511,0.50093 -1.37511,0.63681 0,0.22939 2.57845,5.03678 2.98379,5.56311 0.0998,0.12964 0.5522,-0.11171 1.00511,-0.53611 1.13303,-1.06168 1.55002,-0.38562 0.77308,1.25349 -0.50469,1.06478 -0.49796,2.22504 0.0326,5.39961 z m -2.68976,6.90902 c -4.12516,6.1722 -9.41769,14.0751 -11.61737,17.3445 0.18374,0.0669 0.38352,0.14458 0.61805,0.24525 2.31028,0.99172 7.76413,0.72113 10.14408,-0.50353 1.17008,-0.60208 3.6231,-2.90285 5.45135,-5.11289 1.82824,-2.21005 3.32434,-3.86455 3.32434,-3.67635 0,0.18819 -0.57762,1.61679 -1.28364,3.1746 -1.5727,3.47007 -4.69847,6.96404 -7.34219,8.20752 -2.86978,1.34981 -6.09617,1.1472 -9.40149,-0.59001 -0.82732,-0.43483 -1.46574,-0.8348 -1.90324,-1.16108 -0.29225,0.43333 -1.02667,1.52837 -1.0294,1.52835 -0.01,-4e-5 -2.23476,-3.37332 -4.88239,-7.39239 l -1.08882,0.32877 0.2067,6.66021 c 0.11371,3.6631 0.39688,7.94673 0.62942,9.51907 0.34463,2.33039 0.29386,2.73761 -0.27595,2.20368 -1.11709,-1.04675 -1.69954,-4.03572 -2.02571,-10.39758 -0.5054,-9.85793 -2.44933,-12.29 -10.2769,-12.85717 -9.22796,-0.66865 -16.10754,4.26326 -16.10754,11.5474 0,2.21052 1.35078,5.70959 3.54862,9.29693 0.38127,-0.0678 0.7626,-0.1411 1.14412,-0.22452 3.38521,-0.74018 7.3468,-2.4629 10.07432,-4.38129 l 1.13791,-0.80032 3.50056,3.80135 3.50056,3.80194 -0.70744,0.59713 c -0.86168,0.72703 -2.01045,1.54252 -3.2427,2.32749 0.9951,2.0794 1.78645,4.0625 1.78645,4.75864 0,2.76547 9.24825,4.39674 14.26373,2.51587 3.38327,-1.26877 6.52141,-4.64777 8.33438,-8.97466 1.5393,-3.67376 2.85489,-5.06698 9.04647,-9.57891 5.96868,-4.3495 6.74601,-6.012 6.52829,-13.96197 -0.15578,-5.68822 -0.29503,-6.3473 -2.28307,-10.8087 -1.27448,-2.86011 -2.4935,-4.82995 -3.06286,-4.9488 -0.73778,-0.154 -1.53168,1.21567 -3.60908,6.22599 -1.46477,3.53273 -3.01672,7.37858 -3.44889,8.54637 -1.29293,3.49376 -1.36554,1.89602 -0.18655,-4.11235 0.21859,-1.114 0.39467,-2.15481 0.53588,-3.14854 z m -27.90475,33.48711 c -1.14553,-2.39374 -2.56164,-4.91505 -3.36517,-5.75326 l -1.36116,-1.41996 1.05472,2.40213 c 0.51559,1.17385 1.44313,3.58133 2.1947,5.67389 0.4996,-0.29126 0.99269,-0.59434 1.47691,-0.9028 z m -1.47691,0.9028 c -0.9862,0.57492 -1.97927,1.10356 -2.88872,1.52599 -7.72831,3.58969 -16.08105,4.43763 -23.980961,2.68944 0.01516,0.0739 0.03104,0.14552 0.04599,0.21977 1.226341,6.0917 2.890896,8.34127 7.402651,10.00542 3.47868,1.28314 8.72503,1.24633 13.47876,-0.0948 3.08844,-0.87129 6.38204,-4.18925 7.08536,-7.13827 0.48932,-2.0517 0.37653,-2.89244 -0.8599,-6.42029 -0.0872,-0.24882 -0.18892,-0.52482 -0.28318,-0.78728 z m -26.869681,4.21543 c -0.513025,-2.50084 -1.137,-4.76485 -1.407666,-5.08565 -0.355959,-0.42187 -0.354962,2.00026 -0.163298,4.70474 0.521375,0.13933 1.045255,0.26457 1.570964,0.38091 z m -1.570964,-0.38091 c -4.54778,-1.21533 -8.917159,-3.30618 -12.899988,-6.24139 0.04543,0.40752 0.08857,0.83297 0.125574,1.28252 0.1924,2.33733 0.68249,4.97234 1.08934,5.85515 1.683629,3.65328 5.05201,5.80998 10.124445,6.48309 l 2.979664,0.39512 -0.571024,-1.69659 c -0.359238,-1.06682 -0.678278,-3.68284 -0.848011,-6.0779 z m -12.899988,-6.24139 c -0.190785,-1.71131 -0.43888,-2.96727 -0.610298,-2.96727 -0.219094,0 -0.460211,0.82442 -0.657326,1.99635 0.417661,0.33397 0.840793,0.65636 1.267624,0.97092 z m -1.267624,-0.97092 c -0.0563,-0.045 -0.11389,-0.0873 -0.170013,-0.1327 -1.922365,-1.55394 -5.068596,-4.74773 -6.483326,-6.58083 -0.248185,-0.32158 -0.496819,-0.65854 -0.745175,-1.0035 -0.726644,0.60643 -0.847135,0.31134 -0.399976,-0.57166 -1.750425,-2.51698 -3.429347,-5.48164 -4.508251,-8.01677 -0.494358,-1.1616 -1.174965,-3.15905 -1.736844,-5.00923 -7.94e-4,1.7e-4 -0.0013,3e-4 -0.0021,6.1e-4 l -2.575555,0.61904 1.794206,-1.65394 c 0.133286,-0.12293 0.257683,-0.24428 0.373105,-0.36373 -0.214281,-0.76587 -0.389911,-1.45356 -0.493512,-1.96436 -0.162528,-0.80131 -0.43521,-2.51545 -0.606163,-3.80905 l -0.07958,-0.60186 c -1.086694,-1.34179 -1.133189,-1.90061 -0.213424,-1.61485 l -0.0181,-0.13506 -6.566524,-0.0302 -1.256771,-0.006 c 0.06798,0.18162 0.131283,0.35537 0.20257,0.54263 2.971332,7.8051 3.494532,12.03412 1.853118,14.97437 -0.599223,1.07337 -1.451896,1.95132 -1.894975,1.95132 -1.018884,0 -1.010298,-0.28986 0.0646,-2.14207 1.19932,-2.06662 0.711076,-6.73917 -1.250569,-11.96859 -0.638661,-1.70257 -1.0287,-2.70255 -1.473295,-3.36891 l -2.811198,-0.0124 0.309026,-0.47864 c 0.03741,-0.058 0.490931,-0.73578 0.603062,-0.90517 -0.261406,-0.10634 -0.554546,-0.216 -0.888318,-0.33885 -3.632202,-1.33689 -5.321993,-2.66273 -6.660575,-5.22426 -1.054696,-2.01827 -1.154414,-2.07193 -1.862934,-1.00647 -1.641057,2.46781 -3.430392,7.13909 -3.831291,10.00246 -0.555956,3.97084 0.08456,6.34235 2.564183,9.49716 l 2.037604,2.59288 2.300118,-2.22323 c 1.265018,-1.22256 2.39191,-2.11904 2.504239,-1.9922 0.112328,0.12682 -0.547505,1.43431 -1.466062,2.90566 -1.289386,2.06535 -1.670182,3.30789 -1.670182,5.44996 0,4.89631 2.963717,9.14654 7.155637,10.26192 2.424007,0.64499 5.48757,-0.69513 8.884211,-3.88665 1.757537,-1.6514 3.195672,-2.77575 3.195672,-2.4981 0,0.27765 -0.728234,1.8017 -1.618506,3.38668 -1.453468,2.58767 -1.559047,3.0864 -1.033529,4.88423 1.738183,5.94646 7.445751,8.89475 15.122591,7.81182 l 2.953308,-0.41645 0.0057,-2.20901 c 0.0043,-1.61173 0.170561,-3.3889 0.393774,-4.716 z M 48.86575,186.66834 c 0.917569,0.37327 1.437955,0.70509 1.89911,1.39626 l 2.498556,0.0113 c -0.800434,-2.13835 -1.373198,-3.8954 -1.735297,-5.40435 -1.428152,2.13787 -2.189591,3.28263 -2.662369,3.99683 z m 2.662369,-3.99683 c 1.184741,-1.7735 2.666688,-3.98929 4.129466,-6.17564 l -0.645956,-0.17357 0.966867,-0.30626 c 0.940501,-1.4056 1.681771,-2.51279 2.609659,-3.8985 -0.211203,-0.47254 -0.715915,-0.58086 -1.900142,-0.69073 -2.366116,-0.21952 -3.820639,0.93534 -4.940784,3.92338 -0.830972,2.21667 -0.950201,4.27467 -0.21911,7.32132 z m 7.060036,-10.55397 c 0.122558,0.27421 0.146759,0.6703 0.146759,1.26237 0,1.50259 -0.275121,1.85065 -1.861383,2.35296 l -0.895035,0.28317 c -0.114224,0.1707 -0.207248,0.30995 -0.320911,0.47983 l 0.949812,0.25473 c 0.877557,0.23568 2.229437,0.4603 3.00395,0.49938 l 1.408183,0.0711 -0.07751,-8.71698 c -0.763868,1.13985 -1.507911,2.25009 -2.353861,3.51345 z m 2.353861,-3.51345 c 2.533377,-3.78035 4.632727,-6.90906 4.642093,-6.90902 0.0062,3e-5 1.028544,1.5466 2.300118,3.47376 0.276662,-0.96485 0.59064,-1.65868 0.77928,-1.65868 0.445791,0 0.532873,1.40932 0.328663,3.33929 4.823946,7.31788 13.190743,20.0397 13.719577,20.87335 l 0.30489,0.48102 -5.875094,-0.0237 c -2.787373,-0.0113 -5.163894,0.0192 -5.804813,0.0705 0.413049,0.51603 0.855379,1.04313 1.333251,1.58641 1.842572,2.09477 3.350183,4.05377 3.350183,4.35345 0,0.99722 -0.771728,0.52895 -3.836458,-2.32749 -0.225769,-0.21042 -0.445537,-0.41992 -0.660424,-0.62911 0.868884,4.40599 2.495931,8.40742 5.010547,12.32876 0.412732,0.64363 1.33844,1.75004 2.392619,2.91633 l 0.243396,0.002 c 4.644699,0.0309 5.391721,-0.10292 5.647716,-1.01358 0.317775,-1.13044 3.406466,-4.41129 4.580083,-4.86468 0.497155,-0.19206 0.208071,-0.81607 -0.944644,-2.04019 -0.913527,-0.9701 -2.339126,-3.24139 -3.168283,-5.04713 -1.347446,-2.9345 -1.528326,-4.01681 -1.702739,-10.18907 -0.157403,-5.57024 0.05974,-8.36353 1.123445,-14.44477 0.725297,-4.14654 1.688309,-8.53744 2.139923,-9.7578 1.627479,-4.39781 1.73496,-2.07518 0.23771,5.13718 -1.811107,8.72422 -2.462858,18.92566 -1.531173,23.96325 0.884452,4.78217 3.364288,8.77963 6.389791,10.29984 3.231269,1.6236 8.845117,1.75232 10.689787,0.24525 0.72086,-0.58893 2.09211,-1.71323 3.04684,-2.4981 0.95473,-0.78487 3.78068,-2.03691 6.28024,-2.78244 3.24825,-0.96884 4.83192,-1.76692 5.55057,-2.79844 1.30466,-1.87266 1.69663,-4.93113 1.20251,-9.42192 l -0.24288,-0.38268 0.20153,6e-4 c -0.0832,-0.69855 -0.18642,-1.42962 -0.31109,-2.19657 -0.97216,-5.98049 -1.10819,-10.72817 -0.32298,-11.27609 0.31338,-0.21868 0.53441,0.44464 0.53641,1.61544 0.002,1.09287 0.60414,5.23001 1.33738,9.19326 0.18156,0.98134 0.3372,1.8641 0.46974,2.67107 l 3.99304,0.016 c 3.24715,0.0132 5.9237,-0.0629 5.94744,-0.16942 0.0238,-0.10638 -0.13902,-1.19647 -0.36122,-2.42227 -0.94387,-5.20691 -2.8492,-9.75211 -5.82238,-13.8897 -1.18611,-1.65063 -4.39676,-4.9492 -5.9955,-6.15906 -3.00194,-2.27174 -6.29053,-3.90507 -9.74049,-4.87416 -3.52585,6.42071 -6.29573,15.52571 -6.31073,22.3958 -0.007,3.33878 -0.14201,4.0227 -0.67386,3.42222 -0.42739,-0.48255 -0.65804,-2.50898 -0.64544,-5.67448 0.0222,-5.60163 1.29926,-11.00195 4.24109,-17.93275 0.42098,-0.99182 0.76791,-1.90797 1.04334,-2.76112 -3.64072,-0.69267 -7.424511,-0.66734 -11.2143,0.11197 -3.109854,0.63948 -7.548742,2.56987 -10.202476,4.43638 l -1.137915,0.80032 -1.579231,-1.71556 c -0.02748,0.64994 -0.05463,1.32628 -0.08217,2.05026 -0.352099,9.25818 -0.523525,10.59722 -1.650545,12.90397 -1.473046,3.01496 -3.593298,4.18327 -2.313553,1.27482 0.963311,-2.1893 1.858867,-8.51228 1.863968,-13.15692 0.0044,-3.98968 -0.338206,-4.59879 -3.718637,-6.60986 -1.284216,-0.764 -3.016236,-1.11171 -5.584671,-1.12317 -4.417706,-0.0188 -6.495431,1.29105 -8.388636,5.28884 -1.084082,2.28921 -1.177784,3.2535 -1.105876,11.35902 z m 20.979082,-12.12676 c 0.23935,-5.66028 0.507891,-8.61379 1.337902,-10.45742 -0.952624,0.50855 -1.929929,1.0826 -2.862873,1.67883 -0.159838,0.65969 -0.289801,1.35846 -0.38861,2.10238 l -0.368969,2.77652 -1.539957,-0.98929 c -0.594873,-0.38207 -1.006391,-0.80671 -1.257287,-1.28785 l -0.342098,0.2885 3.500562,3.80194 z M 83.259,146.01991 c 0.532813,-0.28443 1.058434,-0.55321 1.555978,-0.78432 4.744304,-2.20365 9.731904,-3.36884 14.70556,-3.53951 -4.165275,-1.15046 -9.022892,-0.83684 -12.42663,0.92709 -1.949222,1.01015 -3.107576,1.78119 -3.834908,3.39674 z m 37.12073,34.87325 -1.70946,-0.007 c 0.0155,0.12997 0.0273,0.25445 0.0413,0.38209 l 0.0625,0.0983 c 0.12881,0.20306 1.17091,1.79091 2.07635,3.17164 -0.0773,-1.01938 -0.23409,-2.20393 -0.47077,-3.64496 z m 0.47077,3.64496 c 0.21255,2.80224 -0.18193,4.34326 -1.22886,6.39956 l -0.97049,1.90689 2.21899,0.41704 c 2.52601,0.47481 5.68184,2.13636 6.7076,3.53182 0.40925,0.55675 1.10144,0.8528 1.93425,0.91938 -3.31296,-5.03167 -6.52923,-9.92318 -8.66149,-13.17469 z m 8.66149,13.17469 c 0.53373,0.81062 1.00916,1.53266 1.5074,2.28899 l 1.17771,-0.35544 c 5.30524,-1.60206 8.26012,-7.16002 8.51731,-16.01992 0.0328,-1.12819 0.0437,-2.00611 0.032,-2.64738 l -0.33073,-0.002 -0.0832,-0.70257 c -0.2327,0.83991 -0.56676,2.63489 -1.01545,5.42093 -0.70372,4.36965 -1.97464,7.5222 -3.81061,9.45036 -1.66969,1.75351 -4.16923,2.71273 -5.99447,2.56681 z m -50.585542,8.76615 -5.109249,-0.0338 0.296621,-1.68889 c 0.660779,-3.75629 -2.763721,-8.49674 -6.644555,-9.19741 -1.765377,-0.31871 -2.086176,-0.60175 -2.086176,-1.84054 0,-2.10575 -0.869931,-3.64236 -2.648934,-4.68105 -0.707628,-0.41315 -1.248214,-0.67183 -1.629357,-0.79024 l 0.213423,1.61485 c 0.05871,0.0725 0.114004,0.14272 0.1788,0.21977 2.449367,2.91258 2.725682,4.36995 1.000456,6.1555 0.124317,0.44433 0.263816,0.91565 0.410311,1.39803 2.941476,-0.70641 6.358509,0.38213 8.127669,2.58932 1.643668,2.05063 1.330338,5.80424 -0.718304,8.61035 -0.542375,0.74292 -0.930074,1.36388 -1.16427,1.82633 0.133331,0.19173 0.266031,0.38561 0.399976,0.57166 0.158821,-0.13255 0.346458,-0.30806 0.563274,-0.5296 1.658628,-1.69476 5.853041,-2.85361 8.828918,-2.43945 0.778312,0.10832 1.407583,0.19079 1.927532,0.27961 -0.646845,-0.65668 -1.315643,-1.36692 -1.946135,-2.06447 z m 1.946135,2.06447 c 0.896025,0.90965 1.728952,1.69752 2.291331,2.13852 -0.136768,-1.49603 -0.610057,-1.85131 -2.291331,-2.13852 z m 2.291331,2.13852 c 0.06159,0.67375 0.05684,1.57632 0.06511,2.81265 0.02495,3.72507 1.175062,8.8633 1.983857,8.8633 0.113186,0 0.107751,-2.76963 -0.01241,-6.1549 -0.06407,-1.80537 -0.09558,-3.11087 -0.07183,-4.14138 -0.625171,-0.40435 -1.242483,-0.83285 -1.850014,-1.28844 -0.03482,-0.0261 -0.07745,-0.062 -0.114724,-0.0912 z m 1.964738,1.37967 c 5.836417,3.7749 12.406976,5.30876 19.079458,4.4589 -3.24179,-4.10777 -4.455207,-7.43503 -4.03851,-10.98168 l 0.33331,-2.83635 -2.002981,-0.3738 c -6.606474,-1.23281 -10.061853,0.1802 -12.281421,5.02227 -0.751168,1.6387 -1.040673,2.57625 -1.089856,4.71066 z m 19.079458,4.4589 c 0.27356,0.34663 0.55661,0.69666 0.85938,1.05504 1.6682,1.97466 3.13128,3.47974 3.25096,3.34462 0.11968,-0.13513 -0.6522,-1.53187 -1.71514,-3.10411 -0.34063,-0.50385 -0.66551,-1.00927 -0.9741,-1.51296 -0.47408,0.0843 -0.94781,0.15712 -1.4211,0.21741 z M 71.523282,191.23387 c -0.103936,-0.52704 -0.199263,-1.05846 -0.281635,-1.59766 -0.104061,-0.68119 -0.141433,-1.29316 -0.08268,-1.35954 0.0081,-0.009 0.07565,-0.0179 0.177766,-0.026 -4.418282,-5.5199 -5.178486,-9.66839 -3.30109,-16.43045 0.470943,-1.69626 0.79955,-3.4871 0.95653,-4.97073 -0.429356,-0.65132 -0.744855,-1.13031 -1.107943,-1.6806 -0.08007,0.27924 -0.157689,0.57828 -0.227375,0.89332 -0.310486,1.40365 -1.068811,4.09882 -1.685168,5.98963 -2.39907,7.35965 -0.777851,13.02059 5.551598,19.18209 z m 65.407898,14.63197 c 0.11154,-0.1654 0.24522,-0.36425 0.39274,-0.5835 -1.30957,-0.47676 -1.35046,-0.13074 -0.39274,0.5835 z M 59.876448,143.2819 c -1.616545,0.0358 -2.875451,0.51278 -3.973401,1.42114 -1.345676,1.1133 -1.99272,2.34059 -5.004345,9.49123 -1.037764,2.46401 -1.821698,3.35 -4.424537,5.00034 -1.739754,1.1031 -3.580439,2.4305 -4.090707,2.95009 -1.282721,1.30616 -2.038297,4.77035 -1.645377,7.54464 l 0.328662,2.32157 1.557528,-2.89974 c 1.392092,-2.59201 1.530255,-2.70825 1.305346,-1.09769 -0.138361,0.99081 -0.65482,3.0177 -1.147733,4.50392 -1.735455,5.2327 -0.15262,9.32927 4.296378,11.11911 1.145728,0.46092 2.094539,0.84984 2.108398,0.86429 0.01386,0.0145 -0.07313,-1.71666 -0.193267,-3.84696 -0.379759,-6.7337 2.773788,-11.73124 7.405232,-11.73697 l 1.918229,-0.002 0.294555,-4.85046 c 0.214114,-3.52703 0.669849,-5.69743 1.670183,-7.95636 1.36276,-3.07736 1.365432,-3.11432 0.313158,-3.93049 -1.676588,-1.30039 -1.283798,-2.0587 0.834059,-1.6101 1.258284,0.26651 2.683772,0.0623 4.236432,-0.6072 1.61441,-0.69607 3.342063,-0.9272 5.570204,-0.74523 2.695199,0.22011 3.20326,0.11103 3.072164,-0.65755 -0.09886,-0.57956 -2.324155,-1.76648 -6.003253,-3.20185 -3.679767,-1.43562 -6.349494,-2.11932 -8.427908,-2.07336 z m -6.967534,10.39817 c 0.18959,0.0319 0.211627,0.98139 0.222726,3.35943 0.01807,3.87304 -0.04521,4.0748 -1.550294,4.95354 -0.863029,0.50389 -2.478487,0.89716 -3.58996,0.87378 l -2.021067,-0.0421 2.3797,-1.1913 c 2.679707,-1.34133 3.176677,-1.97941 3.215309,-4.12834 0.01484,-0.82569 0.368982,-2.17714 0.787032,-3.00281 0.268579,-0.53047 0.442801,-0.8414 0.556554,-0.82224 z"
         style="fill:#000000;stroke-width:0.52782857" />
    </g>
    <path
       style="fill:#ff7f2a;stroke-width:1"
       d="m 194.86334,259.95063 c -2.13931,-2.4181 -4.33999,-5.67529 -5.65346,-8.36758 -0.84541,-1.73288 -2.24626,-5.60724 -2.6405,-7.30287 -0.16253,-0.69902 -0.43538,-2.19424 -0.60633,-3.3227 l -0.31084,-2.05175 -6.56655,-0.0261 -6.56656,-0.0261 0.30894,-0.41758 c 0.74947,-1.01302 17.29367,-22.57491 17.3214,-22.5748 0.0277,1.1e-4 16.38666,21.68641 17.12741,22.70505 l 0.3053,0.41983 -5.87542,-0.0208 c -3.23148,-0.0114 -5.92352,0.0265 -5.98232,0.0844 -0.0588,0.0579 -0.0218,0.59136 0.0823,1.18559 0.771,4.4026 2.47719,8.31912 5.29261,12.14907 1.02418,1.39326 5.17107,5.26073 6.7444,6.28998 7.00514,4.58263 15.23454,6.20369 23.4949,4.62809 3.38521,-0.64569 7.34698,-2.14881 10.0745,-3.8223 l 1.13793,-0.69819 3.50055,3.31654 3.50057,3.31655 -0.70759,0.52079 c -1.86863,1.37537 -5.06592,3.11896 -7.60858,4.14922 -13.27414,5.37856 -28.3925,3.71323 -39.88935,-4.39389 -1.92236,-1.35557 -5.06859,-4.14126 -6.48332,-5.74035 z m 6.9085,-54.29856 c 1.86864,-1.37537 5.06592,-3.11895 7.60858,-4.14922 13.24889,-5.3683 28.39486,-3.71173 39.8372,4.35715 8.6572,6.10487 14.16346,15.05595 15.55466,25.28591 l 0.20889,1.53614 6.55808,0.0261 6.55806,0.0261 -0.30894,0.41757 c -0.74946,1.01302 -17.29365,22.57491 -17.32138,22.57481 -0.0277,-1.1e-4 -16.38667,-21.68642 -17.12741,-22.70505 l -0.30531,-0.41984 5.90392,0.0209 c 3.24715,0.0115 5.92334,-0.055 5.94708,-0.14791 0.0238,-0.0928 -0.13864,-1.0437 -0.36084,-2.11302 -0.94387,-4.54221 -2.84927,-8.50743 -5.82245,-12.11683 -1.18611,-1.43991 -4.39703,-4.31702 -5.99577,-5.37243 -6.78366,-4.47825 -15.02881,-6.11824 -23.30016,-4.6345 -3.10986,0.55785 -7.54901,2.24158 -10.20275,3.86982 l -1.13792,0.69818 -3.50056,-3.31654 -3.50056,-3.31654 z"
       id="path872-1"
       inkscape:connector-curvature="0" />
  </g>
</svg>
