<?xml version="1.0" encoding="UTF-8" standalone="no"?>
<!-- Created with Inkscape (http://www.inkscape.org/) -->

<svg
   xmlns:dc="http://purl.org/dc/elements/1.1/"
   xmlns:cc="http://creativecommons.org/ns#"
   xmlns:rdf="http://www.w3.org/1999/02/22-rdf-syntax-ns#"
   xmlns:svg="http://www.w3.org/2000/svg"
   xmlns="http://www.w3.org/2000/svg"
   xmlns:sodipodi="http://sodipodi.sourceforge.net/DTD/sodipodi-0.dtd"
   xmlns:inkscape="http://www.inkscape.org/namespaces/inkscape"
   inkscape:version="0.92.2 2405546, 2018-03-11"
   sodipodi:docname="nf-icon.svg"
   id="svg8"
   version="1.1"
   viewBox="0 0 210 297"
   height="297mm"
   width="210mm">
  <defs
     id="defs2" />
  <sodipodi:namedview
     inkscape:window-maximized="1"
     inkscape:window-y="0"
     inkscape:window-x="0"
     inkscape:window-height="1027"
     inkscape:window-width="1920"
     showgrid="false"
     inkscape:current-layer="svg8"
     inkscape:document-units="mm"
     inkscape:cy="722.04945"
     inkscape:cx="-106.74357"
     inkscape:zoom="0.49497475"
     inkscape:pageshadow="2"
     inkscape:pageopacity="0.0"
     borderopacity="1.0"
     bordercolor="#666666"
     pagecolor="#ffffff"
     id="base" />
  <metadata
     id="metadata5">
    <rdf:RDF>
      <cc:Work
         rdf:about="">
        <dc:format>image/svg+xml</dc:format>
        <dc:type
           rdf:resource="http://purl.org/dc/dcmitype/StillImage" />
        <dc:title></dc:title>
      </cc:Work>
    </rdf:RDF>
  </metadata>
  <g
     inkscape:label="Layer 1"
     inkscape:groupmode="layer"
     id="layer1">
    <path
       style="fill:#000000;stroke-width:0.52782857"
       d="m 97.733198,187.53455 c -4.511756,-1.45171 -6.176179,-3.41422 -7.40252,-8.72826 -0.52095,-2.2574 -1.175182,-4.34009 -1.453847,-4.6282 -0.671193,-0.69393 -0.08038,7.42456 0.684506,9.40605 l 0.571449,1.48037 -2.979791,-0.34494 c -5.072437,-0.58718 -8.440713,-2.46876 -10.124343,-5.65567 -0.40685,-0.77012 -0.897145,-3.06844 -1.089546,-5.10739 -0.192401,-2.03895 -0.523471,-3.70718 -0.73571,-3.70718 -0.467199,0 -1.043024,3.2079 -1.051067,5.85545 l -0.0059,1.92669 -2.953285,0.36343 c -7.676839,0.94469 -13.384369,-1.62727 -15.122552,-6.81461 -0.525517,-1.56833 -0.42004,-2.00318 1.033426,-4.26051 0.890273,-1.38265 1.618678,-2.71208 1.618678,-2.95428 0,-0.24221 -1.437984,0.73828 -3.195521,2.17887 -3.396642,2.7841 -6.460197,3.95331 -8.884205,3.39066 -4.19192,-0.973 -7.155619,-4.68071 -7.155619,-8.95197 0,-1.86862 0.380711,-2.95232 1.670099,-4.75402 0.918555,-1.28352 1.578194,-2.42419 1.465866,-2.53482 -0.112328,-0.11064 -1.23925,0.67142 -2.504269,1.73791 l -2.300035,1.93906 -2.037827,-2.26172 c -2.479627,-2.75207 -3.119781,-4.82061 -2.563826,-8.28454 0.400899,-2.49784 2.190177,-6.57298 3.831234,-8.72575 0.70852,-0.92945 0.808181,-0.88247 1.862876,0.87815 1.338582,2.23453 3.028541,3.39072 6.660745,4.55695 2.634843,0.846 2.770897,0.98819 4.260733,4.45284 1.961646,4.56185 2.449808,8.63751 1.250489,10.44031 -1.074894,1.61576 -1.083673,1.86904 -0.06479,1.86904 0.443079,0 1.29587,-0.76611 1.895093,-1.70246 1.641414,-2.5649 1.118028,-6.25387 -1.853302,-13.06259 -2.605309,-5.97001 -2.996063,-8.60171 -1.718571,-11.57447 1.120147,-2.6066 2.574755,-3.61428 4.940871,-3.42278 1.871426,0.15146 2.04662,0.29731 2.04662,1.70385 0,1.31077 -0.275223,1.61423 -1.861485,2.05242 l -1.861485,0.51422 1.595559,0.37381 c 0.877557,0.2056 2.229252,0.4017 3.003765,0.43579 l 1.408207,0.062 -0.07857,-7.72656 c -0.07191,-7.07079 0.02197,-7.91177 1.106053,-9.90875 1.893204,-3.48744 3.971018,-4.63024 8.388723,-4.61384 2.568435,0.01 4.300238,0.31341 5.584455,0.97988 3.380431,1.75434 3.723332,2.28602 3.718953,5.76638 -0.0051,4.05172 -0.901062,9.56729 -1.864373,11.47711 -1.279744,2.53717 0.840845,1.51788 2.31389,-1.1122 1.127019,-2.01227 1.298272,-3.18033 1.650372,-11.25663 0.477452,-10.95158 0.825903,-11.87153 5.254936,-13.87379 4.009734,-1.8127 10.041154,-1.8773 14.576021,-0.15611 5.631002,2.13723 6.476002,5.04005 3.342042,11.48093 -2.941832,6.04603 -4.219022,10.75688 -4.241192,15.64342 -0.0126,2.7614 0.21794,4.52929 0.64533,4.95024 0.53185,0.52383 0.66664,-0.0733 0.67393,-2.98586 0.0225,-8.98812 6.238802,-22.3685 11.913832,-25.64415 3.83444,-2.21326 10.01268,-1.42658 14.62159,1.86177 3.49032,2.49025 3.79058,3.70936 2.51084,10.19434 -1.05862,5.36443 -1.06046,5.54208 -0.10509,10.17724 0.53479,2.59462 0.82741,5.43122 0.65027,6.30354 -0.36333,1.7893 -0.004,2.02122 1.03839,0.66934 0.91543,-1.18775 0.91148,-2.73077 -0.0182,-7.10711 -0.68288,-3.21466 -0.68673,-5.18879 -0.0166,-8.52183 0.20193,-1.00434 0.44993,-1.06175 3.0722,-0.71127 5.41609,0.7239 7.69339,2.71368 11.10651,9.70433 2.72566,5.58258 3.09486,9.51365 1.5419,16.41755 -1.17899,5.24136 -1.1066,6.63499 0.18633,3.58723 0.43217,-1.01871 1.98419,-4.37363 3.44896,-7.45538 2.0774,-4.37071 2.87124,-5.5653 3.60902,-5.43096 0.56936,0.10368 1.7885,1.8219 3.06298,4.31689 1.98804,3.89187 2.12729,4.46696 2.28307,9.42903 0.21772,6.93509 -0.55954,8.38518 -6.52822,12.17944 -6.19158,3.93594 -7.50736,5.15127 -9.04666,8.35604 -1.81297,3.77453 -4.95087,6.72227 -8.33414,7.82907 -5.01548,1.64076 -14.26387,0.21782 -14.26387,-2.19461 0,-1.30636 -3.6503,-7.80391 -5.15185,-9.17031 l -1.36109,-1.23857 1.05503,2.09534 c 0.58026,1.15243 1.69524,3.68887 2.47773,5.63651 1.23643,3.07749 1.349,3.81085 0.85968,5.60064 -0.70332,2.57255 -3.99665,5.46709 -7.08509,6.22716 -4.75373,1.1699 -10.0002,1.20213 -13.478882,0.0828 z M 82.794987,169.59454 c -0.196771,-4.83685 -0.09582,-5.60265 1.01802,-7.72234 2.219566,-4.22394 5.674817,-5.45653 12.281291,-4.38109 l 2.00334,0.32611 -0.33327,2.47448 c -0.45186,3.35497 1.00709,6.48282 4.897742,10.50027 1.6682,1.72258 3.13102,3.03551 3.2507,2.91764 0.11968,-0.11788 -0.65209,-1.33649 -1.71503,-2.70802 -2.76667,-3.5699 -4.522372,-7.23083 -4.522372,-9.42991 0,-6.35426 6.879472,-10.65654 16.107432,-10.07325 7.82757,0.49477 9.77136,2.61613 10.27675,11.21562 0.32617,5.54972 0.9085,8.1574 2.02559,9.07053 0.56981,0.46577 0.62086,0.11042 0.27623,-1.92248 -0.23254,-1.37162 -0.51583,-5.10834 -0.62954,-8.30382 l -0.20676,-5.80997 2.26671,-0.5971 c 5.30524,-1.39755 8.26021,-6.24584 8.5174,-13.97471 0.1679,-5.04575 -0.22668,-4.53601 -1.39735,1.80517 -0.70373,3.81183 -1.97496,6.56175 -3.81093,8.24376 -2.43153,2.22761 -6.62267,2.98728 -7.92885,1.43715 -1.02576,-1.21732 -4.18146,-2.66691 -6.70747,-3.0811 l -2.21898,-0.36385 0.97077,-1.66331 c 1.64106,-2.81176 1.68504,-4.50527 0.28803,-11.09233 -0.73324,-3.45731 -1.33505,-7.06603 -1.33737,-8.01939 -0.002,-1.02134 -0.22269,-1.60039 -0.53607,-1.40963 -0.78521,0.47797 -0.64924,4.62002 0.32292,9.83705 0.96399,5.17313 0.69056,8.53857 -0.85049,10.46816 -0.71865,0.89984 -2.30189,1.59629 -5.55014,2.44145 -2.49956,0.65036 -5.3258,1.74267 -6.28053,2.42735 -0.95473,0.68467 -2.32566,1.66521 -3.04652,2.17896 -1.844672,1.31468 -7.45882,1.20225 -10.690087,-0.21408 -3.025503,-1.32614 -5.505352,-4.81309 -6.389802,-8.98478 -0.931685,-4.3945 -0.279776,-13.29374 1.531332,-20.90424 1.497251,-6.29165 1.389784,-8.31778 -0.237696,-4.48139 -0.451612,1.06457 -1.414542,4.89511 -2.139837,8.51231 -1.063707,5.30492 -1.280986,7.74167 -1.123583,12.60083 0.174414,5.38432 0.355247,6.32827 1.702693,8.88815 0.829158,1.57523 2.254987,3.55645 3.168513,4.40271 1.152717,1.06785 1.441752,1.61254 0.944597,1.78008 -1.173618,0.39551 -4.262604,3.25717 -4.580378,4.2433 -0.255995,0.79441 -1.003017,0.91139 -5.647716,0.88445 l -5.352701,-0.0311 0.297063,-1.47312 c 0.660778,-3.27677 -2.763986,-7.41193 -6.64482,-8.02315 -1.765378,-0.27803 -2.086253,-0.52499 -2.086253,-1.60564 0,-1.83693 -0.869617,-3.17778 -2.648619,-4.08387 -2.507511,-1.27714 -2.998475,-0.91555 -1.237354,0.91129 2.613235,2.71075 2.752881,3.97664 0.627331,5.68673 l -1.79396,1.44331 2.575335,-0.54022 c 2.941944,-0.61711 6.359975,0.33235 8.129552,2.25823 1.643668,1.78885 1.330697,5.06307 -0.717945,7.51096 -1.80431,2.15594 -1.929564,3.17062 -0.201219,1.63007 1.658627,-1.47841 5.85325,-2.48951 8.829127,-2.12822 4.428455,0.53763 4.251673,0.34932 4.284009,4.56318 0.02494,3.24953 1.175018,7.73208 1.983813,7.73208 0.113184,0 0.107493,-2.41619 -0.01266,-5.36931 z m 63.035743,-7.49022 c 2.64372,-1.08474 5.76915,-4.13265 7.34185,-7.15974 0.70602,-1.35894 1.28368,-2.60513 1.28368,-2.7693 0,-0.16417 -1.49584,1.27889 -3.32408,3.20681 -1.82825,1.92791 -4.28142,3.93503 -5.4515,4.46025 -2.37995,1.06832 -7.83406,1.3046 -10.14434,0.43948 -2.66966,-0.99971 -1.99986,-0.0182 0.89258,1.30795 3.30532,1.51545 6.53203,1.69204 9.40181,0.51455 z M 73.614622,150.39211 c 0,-0.26143 -1.507559,-1.97044 -3.350131,-3.7978 -5.589551,-5.5434 -6.687428,-9.26658 -4.634523,-15.71687 1.083567,-3.4046 1.416803,-7.2494 0.628319,-7.2494 -0.243236,0 -0.696279,1.00184 -1.006762,2.2263 -0.310484,1.22446 -1.068807,3.57583 -1.685164,5.22526 -2.480519,6.6381 -0.664099,11.69176 6.21167,17.28214 3.064729,2.49179 3.836591,2.90028 3.836591,2.03037 z m 84.573928,-8.93151 c -1.10964,-2.63852 -3.63655,-5.26053 -5.06974,-5.26053 -0.70198,0 -1.78408,0.65177 -2.5282,1.52277 l -1.30094,1.52277 -0.67578,-3.52749 c -0.53052,-2.76931 -0.53759,-3.78179 -0.0329,-4.71064 0.77694,-1.42987 0.36009,-2.01957 -0.77294,-1.09342 -0.45291,0.37022 -0.90516,0.58061 -1.005,0.46752 -0.40534,-0.45914 -2.98389,-4.65282 -2.98389,-4.85292 0,-0.11854 0.61873,-0.36849 1.37496,-0.55543 0.75623,-0.18694 1.93382,-0.93382 2.61687,-1.65973 1.13811,-1.20952 1.41619,-1.27361 3.32725,-0.76677 3.11664,0.82657 4.0909,2.18136 4.10439,5.7075 l 0.0114,2.96942 -1.99444,0.16258 c -1.09695,0.0894 -1.99445,0.37339 -1.99445,0.63105 0,0.8148 3.53358,1.17648 4.828,0.49417 1.05707,-0.5572 1.34328,-0.48796 2.17754,0.52678 1.74393,2.12118 2.23467,4.77981 1.41191,7.64898 l -0.73759,2.5721 z M 44.67291,141.18521 c -4.448999,-1.56135 -6.031931,-5.13494 -4.296476,-9.69965 0.492912,-1.29649 1.00941,-3.06443 1.147772,-3.92876 0.224909,-1.40496 0.08656,-1.30348 -1.305533,0.95764 l -1.5571,2.52914 -0.328804,-2.02523 c -0.392919,-2.42013 0.362422,-5.44178 1.645145,-6.5812 0.510266,-0.45326 2.351194,-1.61143 4.090949,-2.57371 2.602839,-1.43966 3.386606,-2.21234 4.42437,-4.3618 3.011625,-6.2378 3.65865,-7.30828 5.004325,-8.27946 2.509602,-1.8112 5.859469,-1.65753 12.401277,0.56888 3.679096,1.25213 5.904697,2.2876 6.003553,2.79318 0.131096,0.67046 -0.377376,0.76534 -3.072577,0.57333 -2.228141,-0.15874 -3.955332,0.0429 -5.569741,0.65011 -1.552661,0.58403 -2.978194,0.7623 -4.236479,0.52981 -2.117857,-0.39133 -2.510803,0.27037 -0.834216,1.40476 1.052275,0.71198 1.049349,0.74398 -0.313413,3.42849 -1.000334,1.97056 -1.455927,3.86404 -1.670042,6.94081 l -0.294438,4.23101 -1.91845,0.002 c -4.631444,0.005 -7.784766,4.36482 -7.405007,10.23891 0.120142,1.85835 0.207097,3.36848 0.193234,3.35584 -0.01386,-0.0126 -0.962621,-0.35198 -2.108349,-0.75406 z M 49.175803,122.305 c 1.505078,-0.76657 1.568377,-0.94302 1.5503,-4.32163 -0.01776,-3.31914 -0.06272,-3.44685 -0.778933,-2.21285 -0.418048,0.72027 -0.772232,1.8989 -0.787077,2.61918 -0.03863,1.8746 -0.535625,2.43125 -3.215333,3.60135 l -2.379824,1.03915 2.02086,0.037 c 1.111473,0.0204 2.726976,-0.32264 3.590007,-0.7622 z m 92.113847,0.50518 c -1.77414,-1.75911 -4.73428,-3.06461 -8.20423,-3.61828 -1.88846,-0.30132 -1.94771,-0.37613 -1.66362,-2.10039 0.16203,-0.98337 0.13964,-2.396 -0.0497,-3.13918 -0.57129,-2.24189 -3.81448,-5.27261 -7.2827,-6.80559 -6.20332,-2.74191 -12.19252,-2.25239 -15.62581,1.27717 l -1.49798,1.53999 -1.05587,-2.10193 c -2.19124,-4.36206 -10.269542,-7.00222 -17.654028,-5.76971 -6.679189,1.1148 -9.791258,3.91233 -10.653726,9.57697 l -0.368769,2.42206 -1.540008,-0.86285 c -1.046467,-0.58632 -1.543696,-1.28254 -1.551515,-2.17243 -0.0063,-0.72027 -0.187343,-1.57135 -0.402253,-1.89129 -0.508469,-0.75696 -3.156032,-2.05141 -5.174446,-2.5299 -2.144231,-0.50833 -2.928166,-1.23018 -2.928166,-2.69629 0,-1.67519 1.461187,-2.31155 5.307739,-2.31155 4.180357,0 5.861171,1.37521 5.861171,4.79547 0,1.62112 0.159015,2.0673 0.586662,1.6461 0.522812,-0.51493 0.464156,-3.48231 -0.13175,-6.66525 -0.24668,-1.3176 2.991519,-3.54927 4.840762,-3.3361 1.856306,0.21398 1.942275,1.54825 0.169494,2.63059 l -1.476271,0.90132 1.329632,0.006 c 1.566243,0.007 4.029386,-1.1654 3.895338,-1.85459 -0.05148,-0.26456 -0.243434,-0.85984 -0.42662,-1.32285 -0.767241,-1.93924 7.833432,-3.18019 9.648805,-1.39218 0.715957,0.70517 0.596347,0.82896 -1.10471,1.14327 -3.428219,0.63344 -2.022101,1.35267 2.644527,1.35267 2.89932,0 4.432792,-0.1902 4.223432,-0.52384 -0.18078,-0.28811 -0.91291,-0.52383 -1.626952,-0.52383 -2.07756,0 -1.5197,-1.36921 0.962142,-2.36144 3.39511,-1.35736 8.71296,-1.18638 12.21504,0.39276 5.54756,2.50146 6.14795,4.31046 1.56641,4.71964 -1.70769,0.15251 -3.88611,0.67519 -4.84095,1.16152 -1.68264,0.857 -1.77532,0.8479 -3.01143,-0.29586 -1.55505,-1.43886 -1.60256,-1.06356 -0.20655,1.63157 l 1.0688,2.06344 1.98935,-1.01439 c 2.85042,-1.45345 7.66437,-2.06305 12.02912,-1.52325 2.03824,0.25207 3.78997,0.3755 3.89273,0.27429 0.10276,-0.10121 -1.07534,-0.65504 -2.61801,-1.23074 -2.03392,-0.75902 -2.85156,-1.35552 -2.9748,-2.17021 -0.14579,-0.96373 0.0906,-1.1235 1.66204,-1.1235 3.38952,0 5.26515,0.668 7.34362,2.61539 1.137,1.0653 2.06728,2.20913 2.06728,2.54185 0,0.39197 -1.15467,0.60494 -3.27976,0.60494 -1.80387,0 -3.14853,0.12926 -2.98813,0.28724 0.1604,0.15798 2.78437,0.842 5.83106,1.52005 6.59325,1.46733 9.01097,2.39929 10.80287,4.16418 1.84094,1.81319 1.74132,2.93373 -0.26084,2.93373 -1.0637,0 -1.59556,-0.26192 -1.59556,-0.78576 0,-1.05892 -0.71108,-0.99009 -1.77905,0.17221 -1.03321,1.12447 -1.12257,2.65952 -0.26299,4.51766 0.86734,1.8749 1.33504,1.65857 1.07928,-0.49919 -0.1942,-1.63837 -0.0838,-1.83311 1.03754,-1.8305 3.91886,0.009 7.08114,2.10471 7.68834,5.09493 0.26876,1.32357 0.0685,1.90362 -1.03135,2.98686 -1.71244,1.68663 -2.31922,1.61594 -4.47464,-0.52122 z"
       id="path826"
       inkscape:connector-curvature="0" />
    <ellipse
       style="opacity:1;fill:#2d64e8;fill-opacity:0.81960784;stroke:#201212;stroke-width:0.14054146;stroke-miterlimit:4;stroke-dasharray:none;stroke-dashoffset:0;stroke-opacity:1"
       id="path3884"
       cx="98.22155"
       cy="140.51369"
       rx="44.26284"
       ry="34.373867" />
  </g>
</svg>
